<?xml version="1.0" encoding="UTF-8" standalone="no"?>
<!DOCTYPE svg PUBLIC "-//W3C//DTD SVG 1.1//EN" "http://www.w3.org/Graphics/SVG/1.1/DTD/svg11.dtd">
<svg version="1.1" xmlns="http://www.w3.org/2000/svg" xmlns:xlink="http://www.w3.org/1999/xlink" preserveAspectRatio="xMidYMid meet" viewBox="0 0 640 640" width="640" height="640"><defs><path d="M594.97 351.41C549.83 359.3 456.55 344.07 495.72 274.42C534.89 204.77 534.16 150.88 457.91 172.96C381.67 195.03 346.61 203.08 321.28 143.22C295.96 83.36 190.78 56.74 177.15 130.75C163.51 204.77 170.07 242.12 93.75 250.39C17.43 258.66 -4.2 304.5 33.01 333.14C70.22 361.77 -15.73 427.35 69.99 443.64C155.72 459.93 594.97 430.97 594.97 430.97C594.97 415.06 640.12 343.53 594.97 351.41Z" id="enOUuoMiL"></path><path d="M626.29 453.96C626.29 481.74 486.98 504.27 315.13 504.27C143.28 504.27 3.97 481.74 3.97 453.96C3.97 426.18 143.28 403.65 315.13 403.65C486.98 403.65 626.29 426.18 626.29 453.96Z" id="b2hIT2OQED"></path><path d="M204.9 324.63L204.9 333.4" id="b3LVb2TfZS"></path><path d="M34.3 452.93L34.3 444.16" id="i1JvWusHY"></path><path d="M403.65 473.97C418.79 473.97 433.39 471.38 433.39 471.38C433.27 471.11 432.32 469.01 432.21 468.74C426.99 457.16 407.24 461.66 402.76 449.71C402.76 449.71 402.76 449.71 402.76 449.71C399.03 461.66 378.53 457.16 373.32 468.74C373.24 468.92 372.84 469.8 372.13 471.38C382.26 473.11 392.77 473.97 403.65 473.97Z" id="eAe2QTacO"></path><path d="M399.03 458.43C399.03 458.43 399.03 458.43 399.03 458.43C399.03 412.26 399.03 386.61 399.03 381.48C399.03 381.48 399.03 381.48 399.03 381.48C403.96 381.48 406.7 381.48 407.24 381.48C407.24 381.48 407.24 381.48 407.24 381.48C407.24 427.65 407.24 453.3 407.24 458.43C407.24 458.43 407.24 458.43 407.24 458.43C402.31 458.43 399.57 458.43 399.03 458.43Z" id="j12VG1wAv3"></path><path d="M397.78 444.28L389.92 447.18L392.1 455.25L401.36 452.13L397.78 444.28Z" id="bwIUwfiNq"></path><path d="M403.24 458.41C398.25 459.99 395.48 460.86 394.93 461.04C394.93 461.04 376.17 468.91 372.68 465.26C371.08 463.59 377.18 461.94 381.1 459.34C385.02 456.75 391.18 453.09 391.18 453.09C391.18 453.09 396.58 453.29 401.35 452.01C401.6 452.86 402.23 455 403.24 458.41Z" id="b9uKvfZOIe"></path><path d="M358.63 455.18L350.27 455.74L350.08 464.09L359.85 463.71L358.63 455.18Z" id="a7ZNzE8O0"></path><path d="M359.87 470.28C354.64 470.38 351.74 470.44 351.16 470.45C351.16 470.45 330.95 472.71 328.62 468.22C327.56 466.16 333.88 466.3 338.37 464.92C342.87 463.54 349.8 461.76 349.8 461.76C349.8 461.76 354.93 463.48 359.87 463.6C359.87 464.49 359.87 466.71 359.87 470.28Z" id="bxh8TRFpn"></path><path d="M295.85 312.75C301.98 314.3 305.39 315.16 306.07 315.33C311.83 313.84 313.74 313.92 325.52 310.89C335.47 308.33 346.89 303.23 346.89 303.23C347.74 301.81 354.51 290.46 355.36 289.04C360.84 289.54 372.35 295.51 372.35 295.51C372.35 295.51 356.6 316.93 352.12 318.42C347.64 319.92 317.42 323.6 305.9 322.28C302.27 321.86 295.17 318.02 295.17 318.02C294.56 318.12 291.52 318.63 286.06 319.54L278.96 324.33L277.71 323.3L280.54 320.21L284.31 316.58L295.85 312.75Z" id="d4evXI4O6d"></path><path d="M378.52 277.66C378.36 286.26 366.57 302.32 366.57 302.32C366.57 302.32 360.09 293.35 352.12 290.86C352.12 290.86 357.3 275.68 358.88 270.93C360.87 264.96 364.09 262.01 364.09 262.01C366.98 265.14 378.77 264.46 378.52 277.66Z" id="eJXkd2Dlb"></path><path d="M388.57 394.93C388.57 394.93 388.57 394.93 388.57 394.93C388.57 385.52 388.57 380.29 388.57 379.24C388.57 379.24 388.57 379.24 388.57 379.24C406.05 379.24 415.76 379.24 417.7 379.24C417.7 379.24 417.7 379.24 417.7 379.24C417.7 388.65 417.7 393.88 417.7 394.93C417.7 394.93 417.7 394.93 417.7 394.93C400.22 394.93 390.51 394.93 388.57 394.93Z" id="c1iSM2qZM"></path><path d="M389.38 261.21C407.39 253.19 447.57 256.77 451.32 268.67C455.31 281.29 440.12 317.23 440.12 330.68C440.12 344.13 445.35 353.84 446.09 359.81C446.84 365.79 443.11 370.27 443.11 370.27C438.5 370.27 401.66 370.27 397.05 370.27C395.88 352.9 393.78 335.56 392.47 318.22C391.04 299.24 390.01 280.23 389.38 261.21Z" id="a7XZnNWumq"></path><path d="M389.31 258.81C409.1 254.18 440.55 258.21 443.85 268.67C447.84 281.29 432.65 317.23 432.65 330.68C432.65 344.13 437.88 353.84 438.62 359.81C439.37 365.79 435.63 370.27 435.63 370.27C431.78 370.27 400.91 370.27 397.05 370.27C395.88 352.9 393.78 335.56 392.47 318.22C390.98 298.44 389.93 278.63 389.31 258.81Z" id="g32HqOkp"></path><path d="M433.17 384.47C438.66 384.47 443.1 380.02 443.1 374.54C443.1 374.26 443.1 372.83 443.1 370.27L356.44 370.27L356.44 384.47C402.48 384.47 428.06 384.47 433.17 384.47Z" id="avXAIxkdp"></path><path d="M328.95 372.45C326.01 384.59 345.89 456.46 345.89 456.46C350.58 459.61 359.28 458.55 362.47 455.68C362.47 455.68 346.48 394.18 348.22 390.07C352.49 380.02 388.81 368.03 400.27 357.08C411.73 346.12 412.72 335.66 412.72 335.66C410.07 335.79 396.78 336.46 372.88 337.65C345.24 354.07 330.59 365.67 328.95 372.45Z" id="az6No6A1B"></path><path d="M421.69 368.03C415.88 373.51 381.09 368.53 379.1 374.01C381.2 380.99 398 436.8 400.1 443.78C400.1 443.78 396.4 446.03 388.93 449.77C388.93 449.77 345.23 372.77 349.72 362.8C354.2 352.84 384.33 347.11 385.83 341.64C387.32 336.16 388.32 327.19 388.32 327.19C390.45 327.16 401.1 326.97 420.27 326.64C429.69 346.27 430.16 360.07 421.69 368.03Z" id="a3yZOjwmI3"></path><path d="M366.23 255.07C369.31 256.09 372.59 254.44 375.38 252.78C378.67 250.82 382 248.67 384.1 245.48C387.29 240.63 389.87 234.71 389.51 228.92C389.38 226.87 386.39 224.36 385.14 222.73C384.27 221.58 382.96 220.85 381.65 220.22C378.54 218.74 375.23 217.71 371.83 217.16C366.17 216.23 359.86 217.5 358.73 223.72C357.38 231.13 358.47 239.56 360.37 246.77C361.27 250.19 362.87 253.95 366.23 255.07Z" id="aTj62f19Q"></path><path d="M396.29 253.98C395.14 253.69 393.71 253.69 392.8 252.89C389.58 250.07 386.62 244.82 385.52 240.96C385.35 240.38 385.19 239.78 385.35 239.2C382.65 241.48 380.05 243.87 377.55 246.36C376.69 247.21 371.5 246.73 372.13 247.89C372.31 248.21 373.63 251.23 374.93 254.16C372.41 255.81 369.64 257.96 369.64 257.96C369.41 259.26 368.25 265.73 366.15 277.38C372.28 280.82 375.68 282.73 376.37 283.11C376.37 283.11 387.82 280.62 395.29 276.64C402.76 272.65 400.33 256.09 400.33 256.09C399.52 255.67 400.27 254.97 396.29 253.98Z" id="i35OCB9WLj"></path><path d="M385.83 262.69C378.36 265.93 371.63 256.22 371.63 256.22C370.88 256.8 364.85 261.43 364.09 262C364.09 262 363.41 288.48 366.65 302.93C369.89 317.37 372.88 337.65 372.88 337.65C372.88 337.65 376.22 342.55 380.48 342.84C385.7 343.19 392.9 339.1 404.26 341.14C416.86 343.4 426.24 341.41 426.24 341.41C426.24 341.41 416.55 294.03 414.31 284.57C412.07 275.11 406.25 255.72 406.25 255.72C406.25 255.72 401.27 254.47 396.29 253.98C394.19 255.72 393.3 259.45 385.83 262.69Z" id="f5gD8hWPap"></path><path d="M307.94 324.52L307.94 320.76L261.3 320.76C261.3 321.43 261.3 321.81 261.3 321.89C261.3 323.34 262.48 324.52 263.93 324.52C269.8 324.52 284.47 324.52 307.94 324.52Z" id="aRMkqr2VE"></path><path d="M281.04 279.93C282.03 282.65 286.96 296.28 295.85 320.81L294.93 321.19L295.18 321.9L261.3 320.76C252.64 297.53 247.84 284.63 246.88 282.05C246.13 280.03 247.62 277.89 249.77 277.89C251.66 277.89 261.12 277.89 278.14 277.9C279.78 278.44 280.74 279.12 281.04 279.93Z" id="a1kQBIRaML"></path><path d="M270.95 308.97C272.38 308.91 272.72 305.73 271.72 301.87C270.71 298.02 268.74 294.94 267.31 295C265.89 295.07 265.55 298.24 266.55 302.1C267.56 305.96 269.53 309.03 270.95 308.97Z" id="f1WYeyBNaM"></path><path d="M354.56 222.46C352.5 221.39 350.65 219.68 350.26 217.52C349.87 215.36 351.45 212.86 353.8 212.7C354.29 212.67 354.82 212.72 355.22 212.47C355.74 212.15 355.83 211.49 355.91 210.92C356.43 207.08 359.67 203.2 363.84 203.3C367.25 203.38 370.41 206 373.71 205.2C374.73 204.96 375.62 204.41 376.55 203.96C379.35 202.61 382.64 202.16 385.74 202.71C389 203.29 392.47 205.87 391.67 208.87C391.4 209.87 390.69 210.74 390.49 211.75C389.81 215.38 395.58 217.18 396.72 220.7C397.76 223.91 394.59 227.1 394.84 230.44C394.97 232.3 396.05 234.48 394.64 235.8C393.89 236.5 392.6 236.68 392.1 237.55C391.41 238.74 392.69 240.1 392.8 241.44C392.94 243.12 391.03 244.52 389.23 244.37C387.43 244.23 385.93 242.9 385.23 241.36C384.52 239.82 384.46 238.09 384.52 236.42C387.57 235.56 389.45 230.53 386.58 229.25C385.05 228.56 383.42 230.23 382.84 231.64C379.81 226.83 374.97 225.02 368.74 225.02C363.9 224.7 358.8 224.67 354.56 222.46Z" id="jQ4lQsXo"></path><path d="M378.1 239.7C377.7 240.63 377.27 241.6 376.5 242.25C375.32 243.26 373.6 243.32 372.08 243.01C370.57 242.71 367.67 241.87 366.13 242C362.6 242.31 360.01 243.99 359.79 244.42C359.33 245.28 359.97 246.62 359.98 247.59C360 248.61 359.84 249.66 359.31 250.54C358.96 251.13 358.46 251.61 357.99 252.1C356.74 253.44 355.62 255.1 355.72 256.92C355.86 259.41 358.15 261.15 360.23 262.54C361.57 263.42 362.95 264.32 364.52 264.61C365.57 264.81 366.65 264.72 367.72 264.62C369.95 264.42 372.19 264.22 374.33 263.57C376.47 262.91 378.51 261.76 379.86 259.97C381 258.45 381.56 256.57 382.1 254.74C382.96 251.78 383.81 248.77 383.92 245.69C384.02 242.8 383.46 239.93 383.17 237.06C382.91 234.54 382.86 232.01 383.01 229.49C383.03 229.19 383.06 228.45 382.6 228.38C382.1 228.31 382.28 229.07 382.21 229.38C381.95 230.56 381.6 231.64 381.12 232.75C380.11 235.07 379.11 237.39 378.1 239.7Z" id="aNenkMkZk"></path><path d="M363.13 249.13C363.5 249.49 364 249.75 364.51 249.69C365.02 249.63 365.5 249.17 365.46 248.66C365.44 248.47 365.37 248.27 365.47 248.11C365.57 247.95 365.78 247.92 365.96 247.91C366.65 247.88 367.49 247.92 367.81 248.53C367.91 248.71 367.94 248.93 368.05 249.11C368.32 249.53 368.91 249.58 369.4 249.54C370.12 249.48 370.83 249.32 371.5 249.07C371.84 248.95 372.18 248.79 372.43 248.52C372.68 248.26 372.82 247.86 372.7 247.52C372.59 247.23 372.34 247.04 372.09 246.86C369.94 245.33 364.28 242.23 362.54 245.98C362.07 247.01 362.31 248.33 363.13 249.13Z" id="b1fr3zqcfU"></path><path d="M401.56 331.67C410.54 329.02 430.28 329.78 430.28 329.78C430.46 330.5 431.89 336.26 432.07 336.98C432.07 336.98 406.23 335.09 402.64 340.02C399.05 344.95 402.64 374.9 402.64 374.9C402.06 374.88 399.19 374.75 394.03 374.53C393.07 347.73 395.58 333.44 401.56 331.67Z" id="a1iCpVoqDX"></path><path d="M333.27 311.49C339.4 313.05 342.8 313.91 343.49 314.08C349.24 312.59 351.15 312.67 362.94 309.64C372.88 307.08 384.31 301.98 384.31 301.98C385.6 300.04 395.97 284.55 397.27 282.61C402.75 283.11 409.76 294.26 409.76 294.26C409.76 294.26 394.02 315.68 389.54 317.17C385.05 318.67 350.86 322.63 339.34 321.31C335.71 320.9 329.29 316.92 329.29 316.92C328.91 317.01 326.97 317.47 323.47 318.29L316.37 323.08L315.13 322.05L317.96 318.96L321.72 315.32L333.27 311.49Z" id="e2igQqlmM0"></path><path d="M421.44 271.41C421.28 280.01 409.48 296.06 409.48 296.06C409.48 296.06 403.01 287.1 395.04 284.61C395.04 284.61 401.27 272.41 401.77 267.42C402.26 262.44 406.25 255.72 406.25 255.72C409.29 258.86 421.69 258.21 421.44 271.41Z" id="b7hLo9ykS9"></path><path d="M342.49 324.52L342.49 320.76L295.85 320.76C295.85 321.43 295.85 321.81 295.85 321.89C295.85 323.34 297.03 324.52 298.48 324.52C304.35 324.52 319.02 324.52 342.49 324.52Z" id="b2IVhr0H00"></path><path d="M322.59 323.12C322.59 323.12 322.59 323.12 322.59 323.12C322.59 322.42 322.59 322.03 322.59 321.95C322.59 321.95 322.59 321.95 322.59 321.95C331.92 321.95 337.1 321.95 338.14 321.95C338.14 321.95 338.14 321.95 338.14 321.95C338.14 322.65 338.14 323.04 338.14 323.12C338.14 323.12 338.14 323.12 338.14 323.12C328.81 323.12 323.63 323.12 322.59 323.12Z" id="i36ZeLRdmu"></path><path d="M317.96 323.12C317.96 323.12 317.96 323.12 317.96 323.12C317.96 322.42 317.96 322.03 317.96 321.95C317.96 321.95 317.96 321.95 317.96 321.95C319.34 321.95 320.1 321.95 320.26 321.95C320.26 321.95 320.26 321.95 320.26 321.95C320.26 322.65 320.26 323.04 320.26 323.12C320.26 323.12 320.26 323.12 320.26 323.12C318.88 323.12 318.11 323.12 317.96 323.12Z" id="aeN0oUELn"></path><path d="M394.24 476L361.99 335.71L355.92 335.71L391.38 476L394.24 476Z" id="bjob03CcW"></path><path d="M306.87 474.53L327.61 335.71L321.54 335.71L304.01 474.53L306.87 474.53Z" id="bqkygD4CA"></path><path d="M263.42 475.38L240.62 335.71L234.55 335.71L260.56 475.38L263.42 475.38Z" id="b1iyj9FfLm"></path><path d="M183.09 473.9L210.52 335.71L204.45 335.71L180.22 473.9L183.09 473.9Z" id="b4svPHPJpF"></path><path d="M227.9 335.72C227.9 335.72 227.9 335.72 227.9 335.72C227.9 331.95 227.9 329.86 227.9 329.44C227.9 329.44 227.9 329.44 227.9 329.44C318.65 329.44 369.07 329.44 379.16 329.44C379.16 329.44 379.16 329.44 379.16 329.44C379.16 333.21 379.16 335.3 379.16 335.72C379.16 335.72 379.16 335.72 379.16 335.72C288.4 335.72 237.98 335.72 227.9 335.72Z" id="aGB0IjisF"></path><path d="M179.4 335.72C179.4 335.72 179.4 335.72 179.4 335.72C179.4 331.95 179.4 329.86 179.4 329.44C179.4 329.44 179.4 329.44 179.4 329.44C263.09 329.44 309.58 329.44 318.88 329.44C318.88 329.44 318.88 329.44 318.88 329.44C318.88 333.21 318.88 335.3 318.88 335.72C318.88 335.72 318.88 335.72 318.88 335.72C235.19 335.72 188.7 335.72 179.4 335.72Z" id="biLaUSqTu"></path><path d="M231.26 332.59C231.26 332.59 231.26 332.59 231.26 332.59C231.26 327.56 231.26 324.76 231.26 324.2C231.26 324.2 231.26 324.2 231.26 324.2C328.32 324.2 382.25 324.2 393.03 324.2C393.03 324.2 393.03 324.2 393.03 324.2C393.03 329.23 393.03 332.03 393.03 332.59C393.03 332.59 393.03 332.59 393.03 332.59C295.97 332.59 242.05 332.59 231.26 332.59Z" id="gpD2l28XA"></path><path d="M158.19 332.59C158.19 332.59 158.19 332.59 158.19 332.59C158.19 327.56 158.19 324.76 158.19 324.2C158.19 324.2 158.19 324.2 158.19 324.2C248.19 324.2 298.19 324.2 308.19 324.2C308.19 324.2 308.19 324.2 308.19 324.2C308.19 329.23 308.19 332.03 308.19 332.59C308.19 332.59 308.19 332.59 308.19 332.59C218.19 332.59 168.19 332.59 158.19 332.59Z" id="a66j8EM5I"></path><path d="M196.13 208.3C188.58 208.3 182.47 214.42 182.47 221.96C182.47 223.73 182.47 237.87 182.47 239.64C182.47 245.62 186.32 250.69 191.67 252.53C191.7 253.17 191.85 256.32 192.11 262.01L204.38 253.29C214.37 253.29 219.92 253.29 221.03 253.29C228.57 253.29 234.69 247.18 234.69 239.63C234.69 237.87 234.69 223.73 234.69 221.96C234.69 214.42 228.57 208.3 221.03 208.3C216.05 208.3 198.62 208.3 196.13 208.3Z" id="aAhsQM4vP"></path><path d="M218.26 183.25C208.31 183.25 200.24 191.32 200.24 201.27C200.24 203.6 200.24 222.26 200.24 224.59C200.24 234.54 208.31 242.61 218.26 242.61C219.73 242.61 227.05 242.61 240.23 242.61L256.42 254.1C256.76 246.61 256.95 242.44 256.99 241.61C264.05 239.17 269.13 232.48 269.13 224.59C269.13 222.26 269.13 203.6 269.13 201.27C269.13 191.32 261.07 183.25 251.12 183.25C244.55 183.25 221.55 183.25 218.26 183.25Z" id="aHvI2fcc6"></path><path d="M218.04 214.43L224.21 216.61L224.21 219.44L214.67 215.92L214.67 212.94L224.21 209.42L224.21 212.24L218.04 214.43Z" id="e3c3pjd18e"></path><path d="M239.9 204.91L233.51 223.13L230.24 223.13L236.63 204.91L239.9 204.91Z" id="c1RNqaigkg"></path><path d="M255.27 215.92L245.74 219.44L245.74 216.61L251.91 214.43L245.74 212.24L245.74 209.42L255.27 212.94L255.27 215.92Z" id="a1MxbC1ZEh"></path></defs><g><g><g><use xlink:href="#enOUuoMiL" opacity="1" fill="#3fc9ee" fill-opacity="1"></use><g><use xlink:href="#enOUuoMiL" opacity="1" fill-opacity="0" stroke="#000000" stroke-width="1" stroke-opacity="0"></use></g></g><g><use xlink:href="#b2hIT2OQED" opacity="1" fill="#f4f4f4" fill-opacity="1"></use><g><use xlink:href="#b2hIT2OQED" opacity="1" fill-opacity="0" stroke="#000000" stroke-width="1" stroke-opacity="0"></use></g></g><g><use xlink:href="#b3LVb2TfZS" opacity="1" fill="#ffffff" fill-opacity="1"></use><g><use xlink:href="#b3LVb2TfZS" opacity="1" fill-opacity="0" stroke="#000000" stroke-width="1" stroke-opacity="0"></use></g></g><g><use xlink:href="#i1JvWusHY" opacity="1" fill="#ffffff" fill-opacity="1"></use><g><use xlink:href="#i1JvWusHY" opacity="1" fill-opacity="0" stroke="#000000" stroke-width="1" stroke-opacity="0"></use></g></g><g><use xlink:href="#eAe2QTacO" opacity="1" fill="#ece8ec" fill-opacity="1"></use><g><use xlink:href="#eAe2QTacO" opacity="1" fill-opacity="0" stroke="#000000" stroke-width="1" stroke-opacity="0"></use></g></g><g><use xlink:href="#j12VG1wAv3" opacity="1" fill="#ece8ec" fill-opacity="1"></use><g><use xlink:href="#j12VG1wAv3" opacity="1" fill-opacity="0" stroke="#000000" stroke-width="1" stroke-opacity="0"></use></g></g><g><use xlink:href="#bwIUwfiNq" opacity="1" fill="#f5d09f" fill-opacity="1"></use><g><use xlink:href="#bwIUwfiNq" opacity="1" fill-opacity="0" stroke="#000000" stroke-width="1" stroke-opacity="0"></use></g></g><g><use xlink:href="#b9uKvfZOIe" opacity="1" fill="#0b4870" fill-opacity="1"></use><g><use xlink:href="#b9uKvfZOIe" opacity="1" fill-opacity="0" stroke="#000000" stroke-width="1" stroke-opacity="0"></use></g></g><g><use xlink:href="#a7ZNzE8O0" opacity="1" fill="#f5d09f" fill-opacity="1"></use><g><use xlink:href="#a7ZNzE8O0" opacity="1" fill-opacity="0" stroke="#000000" stroke-width="1" stroke-opacity="0"></use></g></g><g><use xlink:href="#bxh8TRFpn" opacity="1" fill="#0b4870" fill-opacity="1"></use><g><use xlink:href="#bxh8TRFpn" opacity="1" fill-opacity="0" stroke="#000000" stroke-width="1" stroke-opacity="0"></use></g></g><g><use xlink:href="#d4evXI4O6d" opacity="1" fill="#e9bb88" fill-opacity="1"></use><g><use xlink:href="#d4evXI4O6d" opacity="1" fill-opacity="0" stroke="#000000" stroke-width="1" stroke-opacity="0"></use></g></g><g><use xlink:href="#eJXkd2Dlb" opacity="1" fill="#ffbe55" fill-opacity="1"></use><g><use xlink:href="#eJXkd2Dlb" opacity="1" fill-opacity="0" stroke="#000000" stroke-width="1" stroke-opacity="0"></use></g></g><g><use xlink:href="#c1iSM2qZM" opacity="1" fill="#ece8ec" fill-opacity="1"></use><g><use xlink:href="#c1iSM2qZM" opacity="1" fill-opacity="0" stroke="#000000" stroke-width="1" stroke-opacity="0"></use></g></g><g><use xlink:href="#a7XZnNWumq" opacity="1" fill="#ece8ec" fill-opacity="1"></use><g><use xlink:href="#a7XZnNWumq" opacity="1" fill-opacity="0" stroke="#000000" stroke-width="1" stroke-opacity="0"></use></g></g><g><use xlink:href="#g32HqOkp" opacity="1" fill="#ffffff" fill-opacity="1"></use><g><use xlink:href="#g32HqOkp" opacity="1" fill-opacity="0" stroke="#000000" stroke-width="1" stroke-opacity="0"></use></g></g><g><use xlink:href="#avXAIxkdp" opacity="1" fill="#ffffff" fill-opacity="1"></use><g><use xlink:href="#avXAIxkdp" opacity="1" fill-opacity="0" stroke="#000000" stroke-width="1" stroke-opacity="0"></use></g></g><g><use xlink:href="#az6No6A1B" opacity="1" fill="#0b4870" fill-opacity="1"></use><g><use xlink:href="#az6No6A1B" opacity="1" fill-opacity="0" stroke="#000000" stroke-width="1" stroke-opacity="0"></use></g></g><g><use xlink:href="#a3yZOjwmI3" opacity="1" fill="#0b4870" fill-opacity="1"></use><g><use xlink:href="#a3yZOjwmI3" opacity="1" fill-opacity="0" stroke="#000000" stroke-width="1" stroke-opacity="0"></use></g></g><g><use xlink:href="#aTj62f19Q" opacity="1" fill="#f5d09f" fill-opacity="1"></use><g><use xlink:href="#aTj62f19Q" opacity="1" fill-opacity="0" stroke="#000000" stroke-width="1" stroke-opacity="0"></use></g></g><g><use xlink:href="#i35OCB9WLj" opacity="1" fill="#f5d09f" fill-opacity="1"></use><g><use xlink:href="#i35OCB9WLj" opacity="1" fill-opacity="0" stroke="#000000" stroke-width="1" stroke-opacity="0"></use></g></g><g><use xlink:href="#f5gD8hWPap" opacity="1" fill="#ffbe55" fill-opacity="1"></use><g><use xlink:href="#f5gD8hWPap" opacity="1" fill-opacity="0" stroke="#000000" stroke-width="1" stroke-opacity="0"></use></g></g><g><use xlink:href="#aRMkqr2VE" opacity="1" fill="#ece8ec" fill-opacity="1"></use><g><use xlink:href="#aRMkqr2VE" opacity="1" fill-opacity="0" stroke="#000000" stroke-width="1" stroke-opacity="0"></use></g></g><g><use xlink:href="#a1kQBIRaML" opacity="1" fill="#ffbe55" fill-opacity="1"></use><g><use xlink:href="#a1kQBIRaML" opacity="1" fill-opacity="0" stroke="#000000" stroke-width="1" stroke-opacity="0"></use></g></g><g><use xlink:href="#f1WYeyBNaM" opacity="1" fill="#ffffff" fill-opacity="1"></use><g><use xlink:href="#f1WYeyBNaM" opacity="1" fill-opacity="0" stroke="#000000" stroke-width="1" stroke-opacity="0"></use></g></g><g><use xlink:href="#jQ4lQsXo" opacity="1" fill="#0b4870" fill-opacity="1"></use><g><use xlink:href="#jQ4lQsXo" opacity="1" fill-opacity="0" stroke="#000000" stroke-width="1" stroke-opacity="0"></use></g></g><g><use xlink:href="#aNenkMkZk" opacity="1" fill="#0b4870" fill-opacity="1"></use><g><use xlink:href="#aNenkMkZk" opacity="1" fill-opacity="0" stroke="#000000" stroke-width="1" stroke-opacity="0"></use></g></g><g><use xlink:href="#b1fr3zqcfU" opacity="1" fill="#f5d09f" fill-opacity="1"></use><g><use xlink:href="#b1fr3zqcfU" opacity="1" fill-opacity="0" stroke="#000000" stroke-width="1" stroke-opacity="0"></use></g></g><g><use xlink:href="#a1iCpVoqDX" opacity="1" fill="#ffffff" fill-opacity="1"></use><g><use xlink:href="#a1iCpVoqDX" opacity="1" fill-opacity="0" stroke="#000000" stroke-width="1" stroke-opacity="0"></use></g></g><g><use xlink:href="#e2igQqlmM0" opacity="1" fill="#f5d09f" fill-opacity="1"></use><g><use xlink:href="#e2igQqlmM0" opacity="1" fill-opacity="0" stroke="#000000" stroke-width="1" stroke-opacity="0"></use></g></g><g><use xlink:href="#b7hLo9ykS9" opacity="1" fill="#ffbe55" fill-opacity="1"></use><g><use xlink:href="#b7hLo9ykS9" opacity="1" fill-opacity="0" stroke="#000000" stroke-width="1" stroke-opacity="0"></use></g></g><g><use xlink:href="#b2IVhr0H00" opacity="1" fill="#ffffff" fill-opacity="1"></use><g><use xlink:href="#b2IVhr0H00" opacity="1" fill-opacity="0" stroke="#000000" stroke-width="1" stroke-opacity="0"></use></g></g><g><use xlink:href="#i36ZeLRdmu" opacity="1" fill="#ece8ec" fill-opacity="1"></use><g><use xlink:href="#i36ZeLRdmu" opacity="1" fill-opacity="0" stroke="#000000" stroke-width="1" stroke-opacity="0"></use></g></g><g><use xlink:href="#aeN0oUELn" opacity="1" fill="#ece8ec" fill-opacity="1"></use><g><use xlink:href="#aeN0oUELn" opacity="1" fill-opacity="0" stroke="#000000" stroke-width="1" stroke-opacity="0"></use></g></g><g><use xlink:href="#bjob03CcW" opacity="1" fill="#ffffff" fill-opacity="1"></use><g><use xlink:href="#bjob03CcW" opacity="1" fill-opacity="0" stroke="#000000" stroke-width="1" stroke-opacity="0"></use></g></g><g><use xlink:href="#bqkygD4CA" opacity="1" fill="#ffffff" fill-opacity="1"></use><g><use xlink:href="#bqkygD4CA" opacity="1" fill-opacity="0" stroke="#000000" stroke-width="1" stroke-opacity="0"></use></g></g><g><use xlink:href="#b1iyj9FfLm" opacity="1" fill="#ffffff" fill-opacity="1"></use><g><use xlink:href="#b1iyj9FfLm" opacity="1" fill-opacity="0" stroke="#000000" stroke-width="1" stroke-opacity="0"></use></g></g><g><use xlink:href="#b4svPHPJpF" opacity="1" fill="#ffffff" fill-opacity="1"></use><g><use xlink:href="#b4svPHPJpF" opacity="1" fill-opacity="0" stroke="#000000" stroke-width="1" stroke-opacity="0"></use></g></g><g><use xlink:href="#aGB0IjisF" opacity="1" fill="#7daddf" fill-opacity="1"></use><g><use xlink:href="#aGB0IjisF" opacity="1" fill-opacity="0" stroke="#000000" stroke-width="1" stroke-opacity="0"></use></g></g><g><use xlink:href="#biLaUSqTu" opacity="1" fill="#93bceb" fill-opacity="1"></use><g><use xlink:href="#biLaUSqTu" opacity="1" fill-opacity="0" stroke="#000000" stroke-width="1" stroke-opacity="0"></use></g></g><g><use xlink:href="#gpD2l28XA" opacity="1" fill="#93bceb" fill-opacity="1"></use><g><use xlink:href="#gpD2l28XA" opacity="1" fill-opacity="0" stroke="#000000" stroke-width="1" stroke-opacity="0"></use></g></g><g><use xlink:href="#a66j8EM5I" opacity="1" fill="#cce1f7" fill-opacity="1"></use><g><use xlink:href="#a66j8EM5I" opacity="1" fill-opacity="0" stroke="#000000" stroke-width="1" stroke-opacity="0"></use></g></g><g><use xlink:href="#aAhsQM4vP" opacity="1" fill="#cce1f7" fill-opacity="1"></use><g><use xlink:href="#aAhsQM4vP" opacity="1" fill-opacity="0" stroke="#000000" stroke-width="1" stroke-opacity="0"></use></g></g><g><use xlink:href="#aHvI2fcc6" opacity="1" fill="#ffffff" fill-opacity="1"></use><g><use xlink:href="#aHvI2fcc6" opacity="1" fill-opacity="0" stroke="#000000" stroke-width="1" stroke-opacity="0"></use></g></g><g><use xlink:href="#e3c3pjd18e" opacity="1" fill="#ffbe55" fill-opacity="1"></use><g><use xlink:href="#e3c3pjd18e" opacity="1" fill-opacity="0" stroke="#000000" stroke-width="1" stroke-opacity="0"></use></g></g><g><use xlink:href="#c1RNqaigkg" opacity="1" fill="#ffbe55" fill-opacity="1"></use><g><use xlink:href="#c1RNqaigkg" opacity="1" fill-opacity="0" stroke="#000000" stroke-width="1" stroke-opacity="0"></use></g></g><g><use xlink:href="#a1MxbC1ZEh" opacity="1" fill="#ffbe55" fill-opacity="1"></use><g><use xlink:href="#a1MxbC1ZEh" opacity="1" fill-opacity="0" stroke="#000000" stroke-width="1" stroke-opacity="0"></use></g></g></g></g></svg>